 0
SECTION
 2
HEADER
 0
ENDSEC
 0
SECTION
 2
TABLES
 0
TABLE
 2
LTYPE
 70
1
 0
LTYPE
 2
CONTINUOUS
 70
0
 3
Solid line
 72
65
 73
0
 40
0.0
 0
ENDTAB
 0
TABLE
 2
LAYER
 70
3
 0
LAYER
 2
PartCut
 70
0
 62
1
 6
CONTINUOUS
 0
LAYER
 2
BLOCKDRILLPILOT
 70
0
 62
6
 6
CONTINUOUS
 0
LAYER
 2
DadoBack
 70
0
 62
6
 6
CONTINUOUS
 0
ENDTAB
 0
ENDSEC
 0
SECTION
 2
BLOCKS
 0
ENDSEC
 0
SECTION
 2
ENTITIES
 0
POLYLINE
 8
PartCut
 66
1
 10
0.0
 20
0.0
 30
0.0
 39
-0.70000
 70
1
 0
VERTEX
 8
PartCut
 10
0.17000
 20
2.00000
 30
0.0
 0
VERTEX
 8
PartCut
 10
0.17000
 20
0.00000
 30
0.0
 0
VERTEX
 8
PartCut
 10
28.77000
 20
0.00000
 30
0.0
 0
VERTEX
 8
PartCut
 10
28.77000
 20
2.00000
 30
0.0
 0
VERTEX
 8
PartCut
 10
28.94000
 20
2.00000
 30
0.0
 0
VERTEX
 8
PartCut
 10
28.94000
 20
15.87500
 30
0.0
 0
VERTEX
 8
PartCut
 10
28.77000
 20
15.87500
 30
0.0
 0
VERTEX
 8
PartCut
 10
28.77000
 20
20.87500
 30
0.0
 0
VERTEX
 8
PartCut
 10
0.17000
 20
20.87500
 30
0.0
 0
VERTEX
 8
PartCut
 10
0.17000
 20
15.87500
 30
0.0
 0
VERTEX
 8
PartCut
 10
0.00000
 20
15.87500
 30
0.0
 0
VERTEX
 8
PartCut
 10
0.00000
 20
2.00000
 30
0.0
 0
SEQEND
 8
PartCut
 0
CIRCLE
 8
BLOCKDRILLPILOT
 10
6.00000
 20
0.72500
 30
0.00000
 39
-0.82000
 40
0.07874
 210
 0 
 220
 0 
 230
 1 
 0
CIRCLE
 8
BLOCKDRILLPILOT
 10
22.60000
 20
0.72500
 30
0.00000
 39
-0.82000
 40
0.07874
 210
 0 
 220
 0 
 230
 1 
 0
CIRCLE
 8
BLOCKDRILLPILOT
 10
19.78875
 20
18.37500
 30
0.00000
 39
-0.82000
 40
0.07874
 210
 0 
 220
 0 
 230
 1 
 0
CIRCLE
 8
BLOCKDRILLPILOT
 10
19.78875
 20
12.93750
 30
0.00000
 39
-0.82000
 40
0.07874
 210
 0 
 220
 0 
 230
 1 
 0
CIRCLE
 8
BLOCKDRILLPILOT
 10
19.78875
 20
7.50000
 30
0.00000
 39
-0.82000
 40
0.07874
 210
 0 
 220
 0 
 230
 1 
 0
POLYLINE
 8
DadoBack
 66
1
 10
0.0
 20
0.0
 30
0.0
 39
-0.20000
 70
1
 0
VERTEX
 8
DadoBack
 10
29.10500
 20
1.11500
 30
0.0
 0
VERTEX
 8
DadoBack
 10
29.10500
 20
0.37500
 30
0.0
 0
VERTEX
 8
DadoBack
 10
-0.16500
 20
0.37500
 30
0.0
 0
VERTEX
 8
DadoBack
 10
-0.16500
 20
1.11500
 30
0.0
 0
SEQEND
 8
DadoBack
 0
POLYLINE
 8
DadoBack
 66
1
 10
0.0
 20
0.0
 30
0.0
 39
-0.20000
 70
1
 0
VERTEX
 8
DadoBack
 10
-0.34000
 20
21.22500
 30
0.0
 0
VERTEX
 8
DadoBack
 10
0.17000
 20
21.22500
 30
0.0
 0
VERTEX
 8
DadoBack
 10
0.17000
 20
-0.35000
 30
0.0
 0
VERTEX
 8
DadoBack
 10
-0.34000
 20
-0.35000
 30
0.0
 0
SEQEND
 8
DadoBack
 0
POLYLINE
 8
DadoBack
 66
1
 10
0.0
 20
0.0
 30
0.0
 39
-0.20000
 70
1
 0
VERTEX
 8
DadoBack
 10
28.77000
 20
21.22500
 30
0.0
 0
VERTEX
 8
DadoBack
 10
29.28000
 20
21.22500
 30
0.0
 0
VERTEX
 8
DadoBack
 10
29.28000
 20
-0.35000
 30
0.0
 0
VERTEX
 8
DadoBack
 10
28.77000
 20
-0.35000
 30
0.0
 0
SEQEND
 8
DadoBack
 0
POLYLINE
 8
DadoBack
 66
1
 10
0.0
 20
0.0
 30
0.0
 39
-0.20000
 70
1
 0
VERTEX
 8
DadoBack
 10
19.41875
 20
18.22500
 30
0.0
 0
VERTEX
 8
DadoBack
 10
20.15875
 20
18.22500
 30
0.0
 0
VERTEX
 8
DadoBack
 10
20.15875
 20
6.65000
 30
0.0
 0
VERTEX
 8
DadoBack
 10
19.41875
 20
6.65000
 30
0.0
 0
SEQEND
 8
DadoBack
 0
POLYLINE
 8
DadoBack
 66
1
 10
0.0
 20
0.0
 30
0.0
 39
-0.20000
 70
1
 0
VERTEX
 8
DadoBack
 10
19.41875
 20
18.22500
 30
0.0
 0
VERTEX
 8
DadoBack
 10
20.15875
 20
18.22500
 30
0.0
 0
VERTEX
 8
DadoBack
 10
20.15875
 20
6.65000
 30
0.0
 0
VERTEX
 8
DadoBack
 10
19.41875
 20
6.65000
 30
0.0
 0
SEQEND
 8
DadoBack
 0
POLYLINE
 8
DadoBack
 66
1
 10
0.0
 20
0.0
 30
0.0
 39
-0.20000
 70
1
 0
VERTEX
 8
DadoBack
 10
28.77000
 20
21.22500
 30
0.0
 0
VERTEX
 8
DadoBack
 10
29.28000
 20
21.22500
 30
0.0
 0
VERTEX
 8
DadoBack
 10
29.28000
 20
-0.35000
 30
0.0
 0
VERTEX
 8
DadoBack
 10
28.77000
 20
-0.35000
 30
0.0
 0
SEQEND
 8
DadoBack
 0
POLYLINE
 8
DadoBack
 66
1
 10
0.0
 20
0.0
 30
0.0
 39
-0.20000
 70
1
 0
VERTEX
 8
DadoBack
 10
-0.34000
 20
21.22500
 30
0.0
 0
VERTEX
 8
DadoBack
 10
0.17000
 20
21.22500
 30
0.0
 0
VERTEX
 8
DadoBack
 10
0.17000
 20
-0.35000
 30
0.0
 0
VERTEX
 8
DadoBack
 10
-0.34000
 20
-0.35000
 30
0.0
 0
SEQEND
 8
DadoBack
 0
POLYLINE
 8
DadoBack
 66
1
 10
0.0
 20
0.0
 30
0.0
 39
-0.20000
 70
1
 0
VERTEX
 8
DadoBack
 10
29.10500
 20
1.11500
 30
0.0
 0
VERTEX
 8
DadoBack
 10
29.10500
 20
0.37500
 30
0.0
 0
VERTEX
 8
DadoBack
 10
-0.16500
 20
0.37500
 30
0.0
 0
VERTEX
 8
DadoBack
 10
-0.16500
 20
1.11500
 30
0.0
 0
SEQEND
 8
DadoBack
 0
ENDSEC
 0
EOF
