 0
SECTION
 2
HEADER
 0
ENDSEC
 0
SECTION
 2
TABLES
 0
TABLE
 2
LTYPE
 70
1
 0
LTYPE
 2
CONTINUOUS
 70
0
 3
Solid line
 72
65
 73
0
 40
0.0
 0
ENDTAB
 0
TABLE
 2
LAYER
 70
2
 0
LAYER
 2
PartCut
 70
0
 62
1
 6
CONTINUOUS
 0
LAYER
 2
BLOCKDRILLSYSTEM
 70
0
 62
6
 6
CONTINUOUS
 0
ENDTAB
 0
ENDSEC
 0
SECTION
 2
BLOCKS
 0
ENDSEC
 0
SECTION
 2
ENTITIES
 0
POLYLINE
 8
PartCut
 66
1
 10
0.0
 20
0.0
 30
0.0
 39
-0.70000
 70
1
 0
VERTEX
 8
PartCut
 10
0.00000
 20
0.00000
 30
0.0
 0
VERTEX
 8
PartCut
 10
28.91000
 20
0.00000
 30
0.0
 0
VERTEX
 8
PartCut
 10
28.91000
 20
7.77000
 30
0.0
 0
VERTEX
 8
PartCut
 10
28.74000
 20
7.77000
 30
0.0
 0
VERTEX
 8
PartCut
 10
28.74000
 20
10.77000
 30
0.0
 0
VERTEX
 8
PartCut
 10
0.17000
 20
10.77000
 30
0.0
 0
VERTEX
 8
PartCut
 10
0.17000
 20
8.77000
 30
0.0
 0
VERTEX
 8
PartCut
 10
0.00000
 20
8.77000
 30
0.0
 0
SEQEND
 8
PartCut
 0
CIRCLE
 8
BLOCKDRILLSYSTEM
 10
5.63640
 20
2.00000
 30
0.00000
 39
-0.80000
 40
0.09843
 210
 0 
 220
 0 
 230
 1 
 0
CIRCLE
 8
BLOCKDRILLSYSTEM
 10
5.63640
 20
9.12500
 30
0.00000
 39
-0.80000
 40
0.09843
 210
 0 
 220
 0 
 230
 1 
 0
CIRCLE
 8
BLOCKDRILLSYSTEM
 10
6.89620
 20
2.00000
 30
0.00000
 39
-0.80000
 40
0.09843
 210
 0 
 220
 0 
 230
 1 
 0
CIRCLE
 8
BLOCKDRILLSYSTEM
 10
6.89620
 20
9.12500
 30
0.00000
 39
-0.80000
 40
0.09843
 210
 0 
 220
 0 
 230
 1 
 0
CIRCLE
 8
BLOCKDRILLSYSTEM
 10
8.15600
 20
2.00000
 30
0.00000
 39
-0.80000
 40
0.09843
 210
 0 
 220
 0 
 230
 1 
 0
CIRCLE
 8
BLOCKDRILLSYSTEM
 10
8.15600
 20
9.12500
 30
0.00000
 39
-0.80000
 40
0.09843
 210
 0 
 220
 0 
 230
 1 
 0
CIRCLE
 8
BLOCKDRILLSYSTEM
 10
9.41580
 20
2.00000
 30
0.00000
 39
-0.80000
 40
0.09843
 210
 0 
 220
 0 
 230
 1 
 0
CIRCLE
 8
BLOCKDRILLSYSTEM
 10
9.41580
 20
9.12500
 30
0.00000
 39
-0.80000
 40
0.09843
 210
 0 
 220
 0 
 230
 1 
 0
CIRCLE
 8
BLOCKDRILLSYSTEM
 10
10.67560
 20
2.00000
 30
0.00000
 39
-0.80000
 40
0.09843
 210
 0 
 220
 0 
 230
 1 
 0
CIRCLE
 8
BLOCKDRILLSYSTEM
 10
10.67560
 20
9.12500
 30
0.00000
 39
-0.80000
 40
0.09843
 210
 0 
 220
 0 
 230
 1 
 0
CIRCLE
 8
BLOCKDRILLSYSTEM
 10
11.93540
 20
2.00000
 30
0.00000
 39
-0.80000
 40
0.09843
 210
 0 
 220
 0 
 230
 1 
 0
CIRCLE
 8
BLOCKDRILLSYSTEM
 10
11.93540
 20
9.12500
 30
0.00000
 39
-0.80000
 40
0.09843
 210
 0 
 220
 0 
 230
 1 
 0
CIRCLE
 8
BLOCKDRILLSYSTEM
 10
13.19520
 20
2.00000
 30
0.00000
 39
-0.80000
 40
0.09843
 210
 0 
 220
 0 
 230
 1 
 0
CIRCLE
 8
BLOCKDRILLSYSTEM
 10
13.19520
 20
9.12500
 30
0.00000
 39
-0.80000
 40
0.09843
 210
 0 
 220
 0 
 230
 1 
 0
CIRCLE
 8
BLOCKDRILLSYSTEM
 10
14.45500
 20
2.00000
 30
0.00000
 39
-0.80000
 40
0.09843
 210
 0 
 220
 0 
 230
 1 
 0
CIRCLE
 8
BLOCKDRILLSYSTEM
 10
14.45500
 20
9.12500
 30
0.00000
 39
-0.80000
 40
0.09843
 210
 0 
 220
 0 
 230
 1 
 0
CIRCLE
 8
BLOCKDRILLSYSTEM
 10
15.71480
 20
2.00000
 30
0.00000
 39
-0.80000
 40
0.09843
 210
 0 
 220
 0 
 230
 1 
 0
CIRCLE
 8
BLOCKDRILLSYSTEM
 10
15.71480
 20
9.12500
 30
0.00000
 39
-0.80000
 40
0.09843
 210
 0 
 220
 0 
 230
 1 
 0
CIRCLE
 8
BLOCKDRILLSYSTEM
 10
16.97460
 20
2.00000
 30
0.00000
 39
-0.80000
 40
0.09843
 210
 0 
 220
 0 
 230
 1 
 0
CIRCLE
 8
BLOCKDRILLSYSTEM
 10
16.97460
 20
9.12500
 30
0.00000
 39
-0.80000
 40
0.09843
 210
 0 
 220
 0 
 230
 1 
 0
CIRCLE
 8
BLOCKDRILLSYSTEM
 10
18.23440
 20
2.00000
 30
0.00000
 39
-0.80000
 40
0.09843
 210
 0 
 220
 0 
 230
 1 
 0
CIRCLE
 8
BLOCKDRILLSYSTEM
 10
18.23440
 20
9.12500
 30
0.00000
 39
-0.80000
 40
0.09843
 210
 0 
 220
 0 
 230
 1 
 0
CIRCLE
 8
BLOCKDRILLSYSTEM
 10
19.49420
 20
2.00000
 30
0.00000
 39
-0.80000
 40
0.09843
 210
 0 
 220
 0 
 230
 1 
 0
CIRCLE
 8
BLOCKDRILLSYSTEM
 10
19.49420
 20
9.12500
 30
0.00000
 39
-0.80000
 40
0.09843
 210
 0 
 220
 0 
 230
 1 
 0
CIRCLE
 8
BLOCKDRILLSYSTEM
 10
20.75400
 20
2.00000
 30
0.00000
 39
-0.80000
 40
0.09843
 210
 0 
 220
 0 
 230
 1 
 0
CIRCLE
 8
BLOCKDRILLSYSTEM
 10
20.75400
 20
9.12500
 30
0.00000
 39
-0.80000
 40
0.09843
 210
 0 
 220
 0 
 230
 1 
 0
CIRCLE
 8
BLOCKDRILLSYSTEM
 10
22.01380
 20
2.00000
 30
0.00000
 39
-0.80000
 40
0.09843
 210
 0 
 220
 0 
 230
 1 
 0
CIRCLE
 8
BLOCKDRILLSYSTEM
 10
22.01380
 20
9.12500
 30
0.00000
 39
-0.80000
 40
0.09843
 210
 0 
 220
 0 
 230
 1 
 0
CIRCLE
 8
BLOCKDRILLSYSTEM
 10
23.27360
 20
2.00000
 30
0.00000
 39
-0.80000
 40
0.09843
 210
 0 
 220
 0 
 230
 1 
 0
CIRCLE
 8
BLOCKDRILLSYSTEM
 10
23.27360
 20
9.12500
 30
0.00000
 39
-0.80000
 40
0.09843
 210
 0 
 220
 0 
 230
 1 
 0
ENDSEC
 0
EOF
