 0
SECTION
 2
HEADER
 0
ENDSEC
 0
SECTION
 2
TABLES
 0
TABLE
 2
LTYPE
 70
1
 0
LTYPE
 2
CONTINUOUS
 70
0
 3
Solid line
 72
65
 73
0
 40
0.0
 0
ENDTAB
 0
TABLE
 2
LAYER
 70
5
 0
LAYER
 2
PartCut
 70
0
 62
1
 6
CONTINUOUS
 0
LAYER
 2
BLOCKDRILLPILOT
 70
0
 62
6
 6
CONTINUOUS
 0
LAYER
 2
BLOCKDRILLSYSTEM
 70
0
 62
6
 6
CONTINUOUS
 0
LAYER
 2
DadoBack
 70
0
 62
6
 6
CONTINUOUS
 0
LAYER
 2
GROOVE25
 70
0
 62
6
 6
CONTINUOUS
 0
ENDTAB
 0
ENDSEC
 0
SECTION
 2
BLOCKS
 0
ENDSEC
 0
SECTION
 2
ENTITIES
 0
POLYLINE
 8
PartCut
 66
1
 10
0.0
 20
0.0
 30
0.0
 39
-0.70000
 70
1
 0
VERTEX
 8
PartCut
 10
0.00000
 20
0.00000
 30
0.0
 0
VERTEX
 8
PartCut
 10
26.50000
 20
0.00000
 30
0.0
 0
VERTEX
 8
PartCut
 10
26.50000
 20
3.00000
 30
0.0
 0
VERTEX
 8
PartCut
 10
30.50000
 20
3.00000
 30
0.0
 0
VERTEX
 8
PartCut
 10
30.50000
 20
21.00000
 30
0.0
 0
VERTEX
 8
PartCut
 10
0.00000
 20
21.00000
 30
0.0
 0
SEQEND
 8
PartCut
 0
CIRCLE
 8
BLOCKDRILLPILOT
 10
13.25000
 20
20.25500
 30
0.00000
 39
-0.82000
 40
0.07874
 210
 0 
 220
 0 
 230
 1 
 0
CIRCLE
 8
BLOCKDRILLPILOT
 10
26.14000
 20
2.00000
 30
0.00000
 39
-0.82000
 40
0.07874
 210
 0 
 220
 0 
 230
 1 
 0
CIRCLE
 8
BLOCKDRILLPILOT
 10
26.14000
 20
7.66667
 30
0.00000
 39
-0.82000
 40
0.07874
 210
 0 
 220
 0 
 230
 1 
 0
CIRCLE
 8
BLOCKDRILLPILOT
 10
26.14000
 20
13.33334
 30
0.00000
 39
-0.82000
 40
0.07874
 210
 0 
 220
 0 
 230
 1 
 0
CIRCLE
 8
BLOCKDRILLPILOT
 10
26.14000
 20
19.00001
 30
0.00000
 39
-0.82000
 40
0.07874
 210
 0 
 220
 0 
 230
 1 
 0
CIRCLE
 8
BLOCKDRILLPILOT
 10
28.50000
 20
3.35000
 30
0.00000
 39
-0.82000
 40
0.07874
 210
 0 
 220
 0 
 230
 1 
 0
CIRCLE
 8
BLOCKDRILLPILOT
 10
0.35000
 20
1.50000
 30
0.00000
 39
-0.82000
 40
0.07874
 210
 0 
 220
 0 
 230
 1 
 0
CIRCLE
 8
BLOCKDRILLPILOT
 10
0.35000
 20
4.00000
 30
0.00000
 39
-0.82000
 40
0.07874
 210
 0 
 220
 0 
 230
 1 
 0
CIRCLE
 8
BLOCKDRILLPILOT
 10
0.35000
 20
18.25000
 30
0.00000
 39
-0.82000
 40
0.07874
 210
 0 
 220
 0 
 230
 1 
 0
CIRCLE
 8
BLOCKDRILLPILOT
 10
19.93750
 20
2.00000
 30
0.00000
 39
-0.82000
 40
0.07874
 210
 0 
 220
 0 
 230
 1 
 0
CIRCLE
 8
BLOCKDRILLPILOT
 10
19.93750
 20
7.66667
 30
0.00000
 39
-0.82000
 40
0.07874
 210
 0 
 220
 0 
 230
 1 
 0
CIRCLE
 8
BLOCKDRILLPILOT
 10
19.93750
 20
13.33334
 30
0.00000
 39
-0.82000
 40
0.07874
 210
 0 
 220
 0 
 230
 1 
 0
CIRCLE
 8
BLOCKDRILLPILOT
 10
19.93750
 20
19.00001
 30
0.00000
 39
-0.82000
 40
0.07874
 210
 0 
 220
 0 
 230
 1 
 0
CIRCLE
 8
BLOCKDRILLSYSTEM
 10
17.15846
 20
1.45700
 30
0.00000
 39
-0.52000
 40
0.09843
 210
 0 
 220
 0 
 230
 1 
 0
CIRCLE
 8
BLOCKDRILLSYSTEM
 10
15.89862
 20
1.45700
 30
0.00000
 39
-0.52000
 40
0.09843
 210
 0 
 220
 0 
 230
 1 
 0
CIRCLE
 8
BLOCKDRILLSYSTEM
 10
2.96654
 20
1.45700
 30
0.00000
 39
-0.52000
 40
0.09843
 210
 0 
 220
 0 
 230
 1 
 0
CIRCLE
 8
BLOCKDRILLSYSTEM
 10
4.22638
 20
1.45700
 30
0.00000
 39
-0.52000
 40
0.09843
 210
 0 
 220
 0 
 230
 1 
 0
CIRCLE
 8
BLOCKDRILLSYSTEM
 10
24.25000
 20
0.45000
 30
0.00000
 39
-0.52000
 40
0.09843
 210
 0 
 220
 0 
 230
 1 
 0
CIRCLE
 8
BLOCKDRILLSYSTEM
 10
24.25000
 20
1.51299
 30
0.00000
 39
-0.52000
 40
0.09843
 210
 0 
 220
 0 
 230
 1 
 0
CIRCLE
 8
BLOCKDRILLSYSTEM
 10
24.25000
 20
2.77284
 30
0.00000
 39
-0.52000
 40
0.09843
 210
 0 
 220
 0 
 230
 1 
 0
CIRCLE
 8
BLOCKDRILLSYSTEM
 10
24.25000
 20
10.33189
 30
0.00000
 39
-0.52000
 40
0.09843
 210
 0 
 220
 0 
 230
 1 
 0
CIRCLE
 8
BLOCKDRILLSYSTEM
 10
24.25000
 20
14.11142
 30
0.00000
 39
-0.52000
 40
0.09843
 210
 0 
 220
 0 
 230
 1 
 0
CIRCLE
 8
BLOCKDRILLSYSTEM
 10
24.25000
 20
17.89095
 30
0.00000
 39
-0.52000
 40
0.09843
 210
 0 
 220
 0 
 230
 1 
 0
POLYLINE
 8
DadoBack
 66
1
 10
0.0
 20
0.0
 30
0.0
 39
-0.20000
 70
1
 0
VERTEX
 8
DadoBack
 10
-0.00500
 20
3.87500
 30
0.0
 0
VERTEX
 8
DadoBack
 10
0.73500
 20
3.87500
 30
0.0
 0
VERTEX
 8
DadoBack
 10
0.73500
 20
1.37500
 30
0.0
 0
VERTEX
 8
DadoBack
 10
-0.00500
 20
1.37500
 30
0.0
 0
SEQEND
 8
DadoBack
 0
POLYLINE
 8
DadoBack
 66
1
 10
0.0
 20
0.0
 30
0.0
 39
-0.20000
 70
1
 0
VERTEX
 8
DadoBack
 10
-0.00500
 20
19.62500
 30
0.0
 0
VERTEX
 8
DadoBack
 10
0.73500
 20
19.62500
 30
0.0
 0
VERTEX
 8
DadoBack
 10
0.73500
 20
17.12500
 30
0.0
 0
VERTEX
 8
DadoBack
 10
-0.00500
 20
17.12500
 30
0.0
 0
SEQEND
 8
DadoBack
 0
POLYLINE
 8
DadoBack
 66
1
 10
0.0
 20
0.0
 30
0.0
 39
-0.20000
 70
1
 0
VERTEX
 8
DadoBack
 10
26.15000
 20
2.99500
 30
0.0
 0
VERTEX
 8
DadoBack
 10
26.15000
 20
3.73500
 30
0.0
 0
VERTEX
 8
DadoBack
 10
30.85000
 20
3.73500
 30
0.0
 0
VERTEX
 8
DadoBack
 10
30.85000
 20
2.99500
 30
0.0
 0
SEQEND
 8
DadoBack
 0
POLYLINE
 8
DadoBack
 66
1
 10
0.0
 20
0.0
 30
0.0
 39
-0.20000
 70
1
 0
VERTEX
 8
DadoBack
 10
-0.04000
 20
19.88500
 30
0.0
 0
VERTEX
 8
DadoBack
 10
-0.04000
 20
20.62500
 30
0.0
 0
VERTEX
 8
DadoBack
 10
26.54000
 20
20.62500
 30
0.0
 0
VERTEX
 8
DadoBack
 10
26.54000
 20
19.88500
 30
0.0
 0
SEQEND
 8
DadoBack
 0
POLYLINE
 8
DadoBack
 66
1
 10
0.0
 20
0.0
 30
0.0
 39
-0.20000
 70
1
 0
VERTEX
 8
DadoBack
 10
25.97000
 20
19.25000
 30
0.0
 0
VERTEX
 8
DadoBack
 10
26.50000
 20
19.25000
 30
0.0
 0
VERTEX
 8
DadoBack
 10
26.50000
 20
4.75000
 30
0.0
 0
VERTEX
 8
DadoBack
 10
25.97000
 20
4.75000
 30
0.0
 0
SEQEND
 8
DadoBack
 0
POLYLINE
 8
DadoBack
 66
1
 10
0.0
 20
0.0
 30
0.0
 39
-0.20000
 70
1
 0
VERTEX
 8
DadoBack
 10
19.56750
 20
19.25000
 30
0.0
 0
VERTEX
 8
DadoBack
 10
20.30750
 20
19.25000
 30
0.0
 0
VERTEX
 8
DadoBack
 10
20.30750
 20
4.75000
 30
0.0
 0
VERTEX
 8
DadoBack
 10
19.56750
 20
4.75000
 30
0.0
 0
SEQEND
 8
DadoBack
 0
POLYLINE
 8
GROOVE25
 66
1
 10
0.0
 20
0.0
 30
0.0
 39
-0.21500
 70
1
 0
VERTEX
 8
GROOVE25
 10
0.45000
 20
0.44500
 30
0.0
 0
VERTEX
 8
GROOVE25
 10
0.45000
 20
0.70500
 30
0.0
 0
VERTEX
 8
GROOVE25
 10
2.35000
 20
0.70500
 30
0.0
 0
VERTEX
 8
GROOVE25
 10
2.35000
 20
0.44500
 30
0.0
 0
SEQEND
 8
GROOVE25
 0
ENDSEC
 0
EOF
