 0
SECTION
 2
HEADER
 0
ENDSEC
 0
SECTION
 2
TABLES
 0
TABLE
 2
LTYPE
 70
1
 0
LTYPE
 2
CONTINUOUS
 70
0
 3
Solid line
 72
65
 73
0
 40
0.0
 0
ENDTAB
 0
TABLE
 2
LAYER
 70
2
 0
LAYER
 2
PartCut
 70
0
 62
6
 6
CONTINUOUS
 0
LAYER
 2
DRAWBOLTS
 70
0
 62
6
 6
CONTINUOUS
 0
ENDTAB
 0
ENDSEC
 0
SECTION
 2
BLOCKS
 0
ENDSEC
 0
SECTION
 2
ENTITIES
 0
POLYLINE
 8
PartCut
 66
1
 10
0.0
 20
0.0
 30
0.0
 39
-0.70300
 70
1
 0
VERTEX
 8
PartCut
 10
0.00000
 20
10.62500
 30
0.0
 42
0.0
 0
VERTEX
 8
PartCut
 10
0.00000
 20
0.00000
 30
0.0
 42
0.0
 0
VERTEX
 8
PartCut
 10
17.58581
 20
0.00000
 30
0.0
 42
0.19891
 0
VERTEX
 8
PartCut
 10
18.29291
 20
0.29289
 30
0.0
 42
0.0
 0
VERTEX
 8
PartCut
 10
19.12500
 20
1.12500
 30
0.0
 42
0.0
 0
VERTEX
 8
PartCut
 10
19.12500
 20
10.42500
 30
0.0
 42
0.0
 0
VERTEX
 8
PartCut
 10
14.12500
 20
10.42500
 30
0.0
 42
0.0
 0
VERTEX
 8
PartCut
 10
14.12500
 20
10.62500
 30
0.0
 42
0
 0
SEQEND
 8
PartCut
 0
POLYLINE
 8
DRAWBOLTS
 66
1
 10
0.0
 20
0.0
 30
0.0
 39
-0.57000
 40
0.37500
 41
0.37500
 70
0
 0
VERTEX
 8
DRAWBOLTS
 10
18.39500
 20
0.25434
 30
0.0
 42
0.0
 0
VERTEX
 8
DRAWBOLTS
 10
17.26300
 20
1.38700
 30
0.0
 42
0.0
 0
VERTEX
 8
DRAWBOLTS
 10
16.68500
 20
1.29000
 30
0.0
 42
0.0
 0
VERTEX
 8
DRAWBOLTS
 10
17.43500
 20
2.05000
 30
0.0
 42
0.0
 0
VERTEX
 8
DRAWBOLTS
 10
17.67500
 20
1.80000
 30
0.0
 42
0.0
 0
VERTEX
 8
DRAWBOLTS
 10
16.84500
 20
0.97000
 30
0.0
 42
0.0
 0
VERTEX
 8
DRAWBOLTS
 10
16.36500
 20
1.46000
 30
0.0
 42
0.0
 0
VERTEX
 8
DRAWBOLTS
 10
17.19500
 20
2.29000
 30
0.0
 42
0.0
 0
VERTEX
 8
DRAWBOLTS
 10
17.42500
 20
2.05000
 30
0.0
 42
0
 0
SEQEND
 8
DRAWBOLTS
 0
POLYLINE
 8
DRAWBOLTS
 66
1
 10
0.0
 20
0.0
 30
0.0
 39
-0.57000
 40
0.37500
 41
0.37500
 70
0
 0
VERTEX
 8
DRAWBOLTS
 10
9.56250
 20
-0.10000
 30
0.0
 42
0.0
 0
VERTEX
 8
DRAWBOLTS
 10
9.56250
 20
1.50000
 30
0.0
 42
0.0
 0
VERTEX
 8
DRAWBOLTS
 10
9.07250
 20
1.85000
 30
0.0
 42
0.0
 0
VERTEX
 8
DRAWBOLTS
 10
10.15250
 20
1.85000
 30
0.0
 42
0.0
 0
VERTEX
 8
DRAWBOLTS
 10
10.15250
 20
1.50000
 30
0.0
 42
0.0
 0
VERTEX
 8
DRAWBOLTS
 10
8.97250
 20
1.50000
 30
0.0
 42
0.0
 0
VERTEX
 8
DRAWBOLTS
 10
8.97250
 20
2.19000
 30
0.0
 42
0.0
 0
VERTEX
 8
DRAWBOLTS
 10
10.15250
 20
2.19000
 30
0.0
 42
0.0
 0
VERTEX
 8
DRAWBOLTS
 10
10.15250
 20
1.86000
 30
0.0
 42
0
 0
SEQEND
 8
DRAWBOLTS
 0
POLYLINE
 8
DRAWBOLTS
 66
1
 10
0.0
 20
0.0
 30
0.0
 39
-0.57000
 40
0.37500
 41
0.37500
 70
0
 0
VERTEX
 8
DRAWBOLTS
 10
2.50000
 20
-0.10000
 30
0.0
 42
0.0
 0
VERTEX
 8
DRAWBOLTS
 10
2.50000
 20
1.50000
 30
0.0
 42
0.0
 0
VERTEX
 8
DRAWBOLTS
 10
2.01000
 20
1.85000
 30
0.0
 42
0.0
 0
VERTEX
 8
DRAWBOLTS
 10
3.09000
 20
1.85000
 30
0.0
 42
0.0
 0
VERTEX
 8
DRAWBOLTS
 10
3.09000
 20
1.50000
 30
0.0
 42
0.0
 0
VERTEX
 8
DRAWBOLTS
 10
1.91000
 20
1.50000
 30
0.0
 42
0.0
 0
VERTEX
 8
DRAWBOLTS
 10
1.91000
 20
2.19000
 30
0.0
 42
0.0
 0
VERTEX
 8
DRAWBOLTS
 10
3.09000
 20
2.19000
 30
0.0
 42
0.0
 0
VERTEX
 8
DRAWBOLTS
 10
3.09000
 20
1.86000
 30
0.0
 42
0
 0
SEQEND
 8
DRAWBOLTS
 0
ENDSEC
 0
EOF
