 0
SECTION
 2
HEADER
 0
ENDSEC
 0
SECTION
 2
TABLES
 0
TABLE
 2
LTYPE
 70
1
 0
LTYPE
 2
CONTINUOUS
 70
0
 3
Solid line
 72
65
 73
0
 40
0.0
 0
ENDTAB
 0
TABLE
 2
LAYER
 70
3
 0
LAYER
 2
PartCut
 70
0
 62
1
 6
CONTINUOUS
 0
LAYER
 2
BLOCKDRILLPILOT
 70
0
 62
6
 6
CONTINUOUS
 0
LAYER
 2
DadoBack
 70
0
 62
6
 6
CONTINUOUS
 0
ENDTAB
 0
ENDSEC
 0
SECTION
 2
BLOCKS
 0
ENDSEC
 0
SECTION
 2
ENTITIES
 0
POLYLINE
 8
PartCut
 66
1
 10
0.0
 20
0.0
 30
0.0
 39
-0.70000
 70
1
 0
VERTEX
 8
PartCut
 10
0.00000
 20
0.00000
 30
0.0
 0
VERTEX
 8
PartCut
 10
34.50000
 20
0.00000
 30
0.0
 0
VERTEX
 8
PartCut
 10
34.50000
 20
31.12500
 30
0.0
 0
VERTEX
 8
PartCut
 10
0.00000
 20
31.12500
 30
0.0
 0
SEQEND
 8
PartCut
 0
CIRCLE
 8
BLOCKDRILLPILOT
 10
4.00000
 20
30.77500
 30
0.00000
 39
-0.82000
 40
0.07874
 210
 0 
 220
 0 
 230
 1 
 0
CIRCLE
 8
BLOCKDRILLPILOT
 10
12.83333
 20
30.77500
 30
0.00000
 39
-0.82000
 40
0.07874
 210
 0 
 220
 0 
 230
 1 
 0
CIRCLE
 8
BLOCKDRILLPILOT
 10
21.66666
 20
30.77500
 30
0.00000
 39
-0.82000
 40
0.07874
 210
 0 
 220
 0 
 230
 1 
 0
CIRCLE
 8
BLOCKDRILLPILOT
 10
30.49999
 20
30.77500
 30
0.00000
 39
-0.82000
 40
0.07874
 210
 0 
 220
 0 
 230
 1 
 0
CIRCLE
 8
BLOCKDRILLPILOT
 10
30.15000
 20
4.00000
 30
0.00000
 39
-0.82000
 40
0.07874
 210
 0 
 220
 0 
 230
 1 
 0
CIRCLE
 8
BLOCKDRILLPILOT
 10
0.35000
 20
4.00000
 30
0.00000
 39
-0.82000
 40
0.07874
 210
 0 
 220
 0 
 230
 1 
 0
CIRCLE
 8
BLOCKDRILLPILOT
 10
30.15000
 20
15.56250
 30
0.00000
 39
-0.82000
 40
0.07874
 210
 0 
 220
 0 
 230
 1 
 0
CIRCLE
 8
BLOCKDRILLPILOT
 10
0.35000
 20
15.56250
 30
0.00000
 39
-0.82000
 40
0.07874
 210
 0 
 220
 0 
 230
 1 
 0
CIRCLE
 8
BLOCKDRILLPILOT
 10
30.15000
 20
27.12500
 30
0.00000
 39
-0.82000
 40
0.07874
 210
 0 
 220
 0 
 230
 1 
 0
CIRCLE
 8
BLOCKDRILLPILOT
 10
0.35000
 20
27.12500
 30
0.00000
 39
-0.82000
 40
0.07874
 210
 0 
 220
 0 
 230
 1 
 0
POLYLINE
 8
DadoBack
 66
1
 10
0.0
 20
0.0
 30
0.0
 39
-0.20000
 70
1
 0
VERTEX
 8
DadoBack
 10
34.80000
 20
31.14500
 30
0.0
 0
VERTEX
 8
DadoBack
 10
34.80000
 20
30.40500
 30
0.0
 0
VERTEX
 8
DadoBack
 10
-0.30000
 20
30.40500
 30
0.0
 0
VERTEX
 8
DadoBack
 10
-0.30000
 20
31.14500
 30
0.0
 0
SEQEND
 8
DadoBack
 0
POLYLINE
 8
DadoBack
 66
1
 10
0.0
 20
0.0
 30
0.0
 39
-0.20000
 70
1
 0
VERTEX
 8
DadoBack
 10
29.78000
 20
31.42500
 30
0.0
 0
VERTEX
 8
DadoBack
 10
30.52000
 20
31.42500
 30
0.0
 0
VERTEX
 8
DadoBack
 10
30.52000
 20
-0.30000
 30
0.0
 0
VERTEX
 8
DadoBack
 10
29.78000
 20
-0.30000
 30
0.0
 0
SEQEND
 8
DadoBack
 0
POLYLINE
 8
DadoBack
 66
1
 10
0.0
 20
0.0
 30
0.0
 39
-0.20000
 70
1
 0
VERTEX
 8
DadoBack
 10
-0.02000
 20
31.42500
 30
0.0
 0
VERTEX
 8
DadoBack
 10
0.72000
 20
31.42500
 30
0.0
 0
VERTEX
 8
DadoBack
 10
0.72000
 20
-0.30000
 30
0.0
 0
VERTEX
 8
DadoBack
 10
-0.02000
 20
-0.30000
 30
0.0
 0
SEQEND
 8
DadoBack
 0
ENDSEC
 0
EOF
