 0
SECTION
 2
HEADER
 0
ENDSEC
 0
SECTION
 2
TABLES
 0
TABLE
 2
LTYPE
 70
1
 0
LTYPE
 2
CONTINUOUS
 70
0
 3
Solid line
 72
65
 73
0
 40
0.0
 0
ENDTAB
 0
TABLE
 2
LAYER
 70
4
 0
LAYER
 2
PartCut
 70
0
 62
1
 6
CONTINUOUS
 0
LAYER
 2
BLOCKDRILLPILOT
 70
0
 62
6
 6
CONTINUOUS
 0
LAYER
 2
BLOCKDRILLSYSTEM
 70
0
 62
6
 6
CONTINUOUS
 0
LAYER
 2
DadoBack
 70
0
 62
6
 6
CONTINUOUS
 0
ENDTAB
 0
ENDSEC
 0
SECTION
 2
BLOCKS
 0
ENDSEC
 0
SECTION
 2
ENTITIES
 0
POLYLINE
 8
PartCut
 66
1
 10
0.0
 20
0.0
 30
0.0
 39
-0.70000
 70
1
 0
VERTEX
 8
PartCut
 10
0.00000
 20
3.00000
 30
0.0
 0
VERTEX
 8
PartCut
 10
4.00000
 20
3.00000
 30
0.0
 0
VERTEX
 8
PartCut
 10
4.00000
 20
0.00000
 30
0.0
 0
VERTEX
 8
PartCut
 10
34.50000
 20
0.00000
 30
0.0
 0
VERTEX
 8
PartCut
 10
34.50000
 20
22.00000
 30
0.0
 0
VERTEX
 8
PartCut
 10
0.00000
 20
22.00000
 30
0.0
 0
SEQEND
 8
PartCut
 0
CIRCLE
 8
BLOCKDRILLPILOT
 10
4.36500
 20
1.50000
 30
0.00000
 39
-0.82000
 40
0.07874
 210
 0 
 220
 0 
 230
 1 
 0
CIRCLE
 8
BLOCKDRILLPILOT
 10
4.36500
 20
7.50000
 30
0.00000
 39
-0.82000
 40
0.07874
 210
 0 
 220
 0 
 230
 1 
 0
CIRCLE
 8
BLOCKDRILLPILOT
 10
4.36500
 20
13.50000
 30
0.00000
 39
-0.82000
 40
0.07874
 210
 0 
 220
 0 
 230
 1 
 0
CIRCLE
 8
BLOCKDRILLPILOT
 10
4.36500
 20
19.50000
 30
0.00000
 39
-0.82000
 40
0.07874
 210
 0 
 220
 0 
 230
 1 
 0
CIRCLE
 8
BLOCKDRILLPILOT
 10
34.13500
 20
1.50000
 30
0.00000
 39
-0.82000
 40
0.07874
 210
 0 
 220
 0 
 230
 1 
 0
CIRCLE
 8
BLOCKDRILLPILOT
 10
34.13500
 20
4.00000
 30
0.00000
 39
-0.82000
 40
0.07874
 210
 0 
 220
 0 
 230
 1 
 0
CIRCLE
 8
BLOCKDRILLPILOT
 10
2.00000
 20
3.35000
 30
0.00000
 39
-0.82000
 40
0.07874
 210
 0 
 220
 0 
 230
 1 
 0
CIRCLE
 8
BLOCKDRILLPILOT
 10
6.00000
 20
21.27500
 30
0.00000
 39
-0.82000
 40
0.07874
 210
 0 
 220
 0 
 230
 1 
 0
CIRCLE
 8
BLOCKDRILLPILOT
 10
17.25000
 20
21.27500
 30
0.00000
 39
-0.82000
 40
0.07874
 210
 0 
 220
 0 
 230
 1 
 0
CIRCLE
 8
BLOCKDRILLPILOT
 10
28.50000
 20
21.27500
 30
0.00000
 39
-0.82000
 40
0.07874
 210
 0 
 220
 0 
 230
 1 
 0
CIRCLE
 8
BLOCKDRILLSYSTEM
 10
6.71654
 20
1.45700
 30
0.00000
 39
-0.52000
 40
0.09843
 210
 0 
 220
 0 
 230
 1 
 0
CIRCLE
 8
BLOCKDRILLSYSTEM
 10
7.97638
 20
1.45700
 30
0.00000
 39
-0.52000
 40
0.09843
 210
 0 
 220
 0 
 230
 1 
 0
CIRCLE
 8
BLOCKDRILLSYSTEM
 10
31.53346
 20
1.45700
 30
0.00000
 39
-0.52000
 40
0.09843
 210
 0 
 220
 0 
 230
 1 
 0
CIRCLE
 8
BLOCKDRILLSYSTEM
 10
30.27362
 20
1.45700
 30
0.00000
 39
-0.52000
 40
0.09843
 210
 0 
 220
 0 
 230
 1 
 0
POLYLINE
 8
DadoBack
 66
1
 10
0.0
 20
0.0
 30
0.0
 39
-0.20000
 70
1
 0
VERTEX
 8
DadoBack
 10
33.76500
 20
3.87500
 30
0.0
 0
VERTEX
 8
DadoBack
 10
34.50500
 20
3.87500
 30
0.0
 0
VERTEX
 8
DadoBack
 10
34.50500
 20
1.37500
 30
0.0
 0
VERTEX
 8
DadoBack
 10
33.76500
 20
1.37500
 30
0.0
 0
SEQEND
 8
DadoBack
 0
POLYLINE
 8
DadoBack
 66
1
 10
0.0
 20
0.0
 30
0.0
 39
-0.20000
 70
1
 0
VERTEX
 8
DadoBack
 10
4.10000
 20
3.73500
 30
0.0
 0
VERTEX
 8
DadoBack
 10
4.10000
 20
2.99500
 30
0.0
 0
VERTEX
 8
DadoBack
 10
-0.10000
 20
2.99500
 30
0.0
 0
VERTEX
 8
DadoBack
 10
-0.10000
 20
3.73500
 30
0.0
 0
SEQEND
 8
DadoBack
 0
POLYLINE
 8
DadoBack
 66
1
 10
0.0
 20
0.0
 30
0.0
 39
-0.20000
 70
1
 0
VERTEX
 8
DadoBack
 10
34.85000
 20
21.62500
 30
0.0
 0
VERTEX
 8
DadoBack
 10
34.85000
 20
20.88500
 30
0.0
 0
VERTEX
 8
DadoBack
 10
-0.35000
 20
20.88500
 30
0.0
 0
VERTEX
 8
DadoBack
 10
-0.35000
 20
21.62500
 30
0.0
 0
SEQEND
 8
DadoBack
 0
POLYLINE
 8
DadoBack
 66
1
 10
0.0
 20
0.0
 30
0.0
 39
-0.20000
 70
1
 0
VERTEX
 8
DadoBack
 10
3.98000
 20
21.50000
 30
0.0
 0
VERTEX
 8
DadoBack
 10
4.72000
 20
21.50000
 30
0.0
 0
VERTEX
 8
DadoBack
 10
4.72000
 20
4.50000
 30
0.0
 0
VERTEX
 8
DadoBack
 10
3.98000
 20
4.50000
 30
0.0
 0
SEQEND
 8
DadoBack
 0
ENDSEC
 0
EOF
