 0
SECTION
 2
HEADER
 0
ENDSEC
 0
SECTION
 2
TABLES
 0
TABLE
 2
LTYPE
 70
1
 0
LTYPE
 2
CONTINUOUS
 70
0
 3
Solid line
 72
65
 73
0
 40
0.0
 0
ENDTAB
 0
TABLE
 2
LAYER
 70
3
 0
LAYER
 2
DRILL3MM
 70
0
 62
6
 6
CONTINUOUS
 0
LAYER
 2
PartCut
 70
0
 62
6
 6
CONTINUOUS
 0
LAYER
 2
DRAWBOLTS
 70
0
 62
6
 6
CONTINUOUS
 0
ENDTAB
 0
ENDSEC
 0
SECTION
 2
BLOCKS
 0
ENDSEC
 0
SECTION
 2
ENTITIES
 0
CIRCLE
 8
DRILL3MM
 10
15.68750
 20
2.25000
 30
0.00000
 39
-0.50000
 40
0.05906
 210
 0 
 220
 0 
 230
 1 
 0
CIRCLE
 8
DRILL3MM
 10
13.81250
 20
2.25000
 30
0.00000
 39
-0.50000
 40
0.05906
 210
 0 
 220
 0 
 230
 1 
 0
CIRCLE
 8
DRILL3MM
 10
14.75000
 20
3.18750
 30
0.00000
 39
-0.50000
 40
0.05906
 210
 0 
 220
 0 
 230
 1 
 0
CIRCLE
 8
DRILL3MM
 10
14.75000
 20
1.31250
 30
0.00000
 39
-0.50000
 40
0.05906
 210
 0 
 220
 0 
 230
 1 
 0
POLYLINE
 8
PartCut
 66
1
 10
0.0
 20
0.0
 30
0.0
 39
-0.70300
 70
1
 0
VERTEX
 8
PartCut
 10
0.00000
 20
5.50000
 30
0.0
 42
0.0
 0
VERTEX
 8
PartCut
 10
0.00000
 20
0.00000
 30
0.0
 42
0.0
 0
VERTEX
 8
PartCut
 10
34.42500
 20
0.00000
 30
0.0
 42
0.0
 0
VERTEX
 8
PartCut
 10
34.42500
 20
3.05000
 30
0.0
 42
0.0
 0
VERTEX
 8
PartCut
 10
34.62500
 20
3.05000
 30
0.0
 42
0.0
 0
VERTEX
 8
PartCut
 10
34.62500
 20
4.95000
 30
0.0
 42
0.0
 0
VERTEX
 8
PartCut
 10
34.42500
 20
4.95000
 30
0.0
 42
0.0
 0
VERTEX
 8
PartCut
 10
34.42500
 20
6.62500
 30
0.0
 42
0.0
 0
VERTEX
 8
PartCut
 10
19.12500
 20
6.62500
 30
0.0
 42
0.0
 0
VERTEX
 8
PartCut
 10
18.29291
 20
5.79289
 30
0.0
 42
-0.19891
 0
VERTEX
 8
PartCut
 10
17.58581
 20
5.50000
 30
0.0
 42
0
 0
SEQEND
 8
PartCut
 0
POLYLINE
 8
DRAWBOLTS
 66
1
 10
0.0
 20
0.0
 30
0.0
 39
-0.57000
 40
0.37500
 41
0.37500
 70
0
 0
VERTEX
 8
DRAWBOLTS
 10
18.25500
 20
5.89500
 30
0.0
 42
0.0
 0
VERTEX
 8
DRAWBOLTS
 10
19.38500
 20
4.76500
 30
0.0
 42
0.0
 0
VERTEX
 8
DRAWBOLTS
 10
19.28500
 20
4.17500
 30
0.0
 42
0.0
 0
VERTEX
 8
DRAWBOLTS
 10
20.04500
 20
4.93500
 30
0.0
 42
0.0
 0
VERTEX
 8
DRAWBOLTS
 10
19.80500
 20
5.17500
 30
0.0
 42
0.0
 0
VERTEX
 8
DRAWBOLTS
 10
18.97500
 20
4.34500
 30
0.0
 42
0.0
 0
VERTEX
 8
DRAWBOLTS
 10
19.45500
 20
3.85500
 30
0.0
 42
0.0
 0
VERTEX
 8
DRAWBOLTS
 10
20.28500
 20
4.69500
 30
0.0
 42
0.0
 0
VERTEX
 8
DRAWBOLTS
 10
20.05500
 20
4.92500
 30
0.0
 42
0
 0
SEQEND
 8
DRAWBOLTS
 0
POLYLINE
 8
DRAWBOLTS
 66
1
 10
0.0
 20
0.0
 30
0.0
 39
-0.57000
 40
0.37500
 41
0.37500
 70
0
 0
VERTEX
 8
DRAWBOLTS
 10
9.56250
 20
5.60000
 30
0.0
 42
0.0
 0
VERTEX
 8
DRAWBOLTS
 10
9.56250
 20
4.00000
 30
0.0
 42
0.0
 0
VERTEX
 8
DRAWBOLTS
 10
9.07250
 20
3.65000
 30
0.0
 42
0.0
 0
VERTEX
 8
DRAWBOLTS
 10
10.15250
 20
3.65000
 30
0.0
 42
0.0
 0
VERTEX
 8
DRAWBOLTS
 10
10.15250
 20
4.00000
 30
0.0
 42
0.0
 0
VERTEX
 8
DRAWBOLTS
 10
8.97250
 20
4.00000
 30
0.0
 42
0.0
 0
VERTEX
 8
DRAWBOLTS
 10
8.97250
 20
3.31000
 30
0.0
 42
0.0
 0
VERTEX
 8
DRAWBOLTS
 10
10.15250
 20
3.31000
 30
0.0
 42
0.0
 0
VERTEX
 8
DRAWBOLTS
 10
10.15250
 20
3.64000
 30
0.0
 42
0
 0
SEQEND
 8
DRAWBOLTS
 0
POLYLINE
 8
DRAWBOLTS
 66
1
 10
0.0
 20
0.0
 30
0.0
 39
-0.57000
 40
0.37500
 41
0.37500
 70
0
 0
VERTEX
 8
DRAWBOLTS
 10
2.50000
 20
5.60000
 30
0.0
 42
0.0
 0
VERTEX
 8
DRAWBOLTS
 10
2.50000
 20
4.00000
 30
0.0
 42
0.0
 0
VERTEX
 8
DRAWBOLTS
 10
2.01000
 20
3.65000
 30
0.0
 42
0.0
 0
VERTEX
 8
DRAWBOLTS
 10
3.09000
 20
3.65000
 30
0.0
 42
0.0
 0
VERTEX
 8
DRAWBOLTS
 10
3.09000
 20
4.00000
 30
0.0
 42
0.0
 0
VERTEX
 8
DRAWBOLTS
 10
1.91000
 20
4.00000
 30
0.0
 42
0.0
 0
VERTEX
 8
DRAWBOLTS
 10
1.91000
 20
3.31000
 30
0.0
 42
0.0
 0
VERTEX
 8
DRAWBOLTS
 10
3.09000
 20
3.31000
 30
0.0
 42
0.0
 0
VERTEX
 8
DRAWBOLTS
 10
3.09000
 20
3.64000
 30
0.0
 42
0
 0
SEQEND
 8
DRAWBOLTS
 0
ENDSEC
 0
EOF
