 0
SECTION
 2
HEADER
 0
ENDSEC
 0
SECTION
 2
TABLES
 0
TABLE
 2
LTYPE
 70
1
 0
LTYPE
 2
CONTINUOUS
 70
0
 3
Solid line
 72
65
 73
0
 40
0.0
 0
ENDTAB
 0
TABLE
 2
LAYER
 70
3
 0
LAYER
 2
DRILL3MM
 70
0
 62
6
 6
CONTINUOUS
 0
LAYER
 2
PartCut
 70
0
 62
6
 6
CONTINUOUS
 0
LAYER
 2
DRAWBOLTS
 70
0
 62
6
 6
CONTINUOUS
 0
ENDTAB
 0
ENDSEC
 0
SECTION
 2
BLOCKS
 0
ENDSEC
 0
SECTION
 2
ENTITIES
 0
CIRCLE
 8
DRILL3MM
 10
15.68750
 20
16.75000
 30
0.00000
 39
-0.73000
 40
0.05906
 210
 0 
 220
 0 
 230
 1 
 0
CIRCLE
 8
DRILL3MM
 10
13.81250
 20
16.75000
 30
0.00000
 39
-0.73000
 40
0.05906
 210
 0 
 220
 0 
 230
 1 
 0
CIRCLE
 8
DRILL3MM
 10
14.75000
 20
17.68750
 30
0.00000
 39
-0.73000
 40
0.05906
 210
 0 
 220
 0 
 230
 1 
 0
CIRCLE
 8
DRILL3MM
 10
14.75000
 20
15.81250
 30
0.00000
 39
-0.73000
 40
0.05906
 210
 0 
 220
 0 
 230
 1 
 0
POLYLINE
 8
PartCut
 66
1
 10
0.0
 20
0.0
 30
0.0
 39
-0.70300
 70
1
 0
VERTEX
 8
PartCut
 10
0.00000
 20
20.00000
 30
0.0
 42
0.0
 0
VERTEX
 8
PartCut
 10
0.00000
 20
0.00000
 30
0.0
 42
0.0
 0
VERTEX
 8
PartCut
 10
34.62500
 20
0.00000
 30
0.0
 42
0.0
 0
VERTEX
 8
PartCut
 10
34.62500
 20
16.12500
 30
0.0
 42
0.0
 0
VERTEX
 8
PartCut
 10
34.42500
 20
16.12500
 30
0.0
 42
0.0
 0
VERTEX
 8
PartCut
 10
34.42500
 20
21.12500
 30
0.0
 42
0.0
 0
VERTEX
 8
PartCut
 10
19.12500
 20
21.12500
 30
0.0
 42
0.0
 0
VERTEX
 8
PartCut
 10
18.29291
 20
20.29289
 30
0.0
 42
-0.19891
 0
VERTEX
 8
PartCut
 10
17.58581
 20
20.00000
 30
0.0
 42
0
 0
SEQEND
 8
PartCut
 0
POLYLINE
 8
DRAWBOLTS
 66
1
 10
0.0
 20
0.0
 30
0.0
 39
-0.57000
 40
0.37500
 41
0.37500
 70
0
 0
VERTEX
 8
DRAWBOLTS
 10
18.25500
 20
20.39500
 30
0.0
 42
0.0
 0
VERTEX
 8
DRAWBOLTS
 10
19.38500
 20
19.26500
 30
0.0
 42
0.0
 0
VERTEX
 8
DRAWBOLTS
 10
19.28500
 20
18.67500
 30
0.0
 42
0.0
 0
VERTEX
 8
DRAWBOLTS
 10
20.04500
 20
19.43500
 30
0.0
 42
0.0
 0
VERTEX
 8
DRAWBOLTS
 10
19.80500
 20
19.67500
 30
0.0
 42
0.0
 0
VERTEX
 8
DRAWBOLTS
 10
18.97500
 20
18.84500
 30
0.0
 42
0.0
 0
VERTEX
 8
DRAWBOLTS
 10
19.45500
 20
18.35500
 30
0.0
 42
0.0
 0
VERTEX
 8
DRAWBOLTS
 10
20.28500
 20
19.19500
 30
0.0
 42
0.0
 0
VERTEX
 8
DRAWBOLTS
 10
20.05500
 20
19.42500
 30
0.0
 42
0
 0
SEQEND
 8
DRAWBOLTS
 0
POLYLINE
 8
DRAWBOLTS
 66
1
 10
0.0
 20
0.0
 30
0.0
 39
-0.57000
 40
0.37500
 41
0.37500
 70
0
 0
VERTEX
 8
DRAWBOLTS
 10
9.56250
 20
20.10000
 30
0.0
 42
0.0
 0
VERTEX
 8
DRAWBOLTS
 10
9.56250
 20
18.50000
 30
0.0
 42
0.0
 0
VERTEX
 8
DRAWBOLTS
 10
9.07250
 20
18.15000
 30
0.0
 42
0.0
 0
VERTEX
 8
DRAWBOLTS
 10
10.15250
 20
18.15000
 30
0.0
 42
0.0
 0
VERTEX
 8
DRAWBOLTS
 10
10.15250
 20
18.50000
 30
0.0
 42
0.0
 0
VERTEX
 8
DRAWBOLTS
 10
8.97250
 20
18.50000
 30
0.0
 42
0.0
 0
VERTEX
 8
DRAWBOLTS
 10
8.97250
 20
17.81000
 30
0.0
 42
0.0
 0
VERTEX
 8
DRAWBOLTS
 10
10.15250
 20
17.81000
 30
0.0
 42
0.0
 0
VERTEX
 8
DRAWBOLTS
 10
10.15250
 20
18.14000
 30
0.0
 42
0
 0
SEQEND
 8
DRAWBOLTS
 0
POLYLINE
 8
DRAWBOLTS
 66
1
 10
0.0
 20
0.0
 30
0.0
 39
-0.57000
 40
0.37500
 41
0.37500
 70
0
 0
VERTEX
 8
DRAWBOLTS
 10
2.50000
 20
20.10000
 30
0.0
 42
0.0
 0
VERTEX
 8
DRAWBOLTS
 10
2.50000
 20
18.50000
 30
0.0
 42
0.0
 0
VERTEX
 8
DRAWBOLTS
 10
2.01000
 20
18.15000
 30
0.0
 42
0.0
 0
VERTEX
 8
DRAWBOLTS
 10
3.09000
 20
18.15000
 30
0.0
 42
0.0
 0
VERTEX
 8
DRAWBOLTS
 10
3.09000
 20
18.50000
 30
0.0
 42
0.0
 0
VERTEX
 8
DRAWBOLTS
 10
1.91000
 20
18.50000
 30
0.0
 42
0.0
 0
VERTEX
 8
DRAWBOLTS
 10
1.91000
 20
17.81000
 30
0.0
 42
0.0
 0
VERTEX
 8
DRAWBOLTS
 10
3.09000
 20
17.81000
 30
0.0
 42
0.0
 0
VERTEX
 8
DRAWBOLTS
 10
3.09000
 20
18.14000
 30
0.0
 42
0
 0
SEQEND
 8
DRAWBOLTS
 0
ENDSEC
 0
EOF
